<svg width="449" height="264" viewBox="0 0 449 264" fill="none" xmlns="http://www.w3.org/2000/svg">
  <g opacity="0.78" filter="url(#shadow)">
    <path d="M200.295 0C249.338 0 291.193 32.3088 307.605 77.7588C309.624 77.6962 311.653 77.6631 313.694 77.6631C386.212 77.6631 445 117.585 445 166.831C445 216.077 386.212 256 313.694 256C293.499 256 274.37 252.902 257.277 247.371H174.567C157.91 252.861 138.622 256 118.063 256C55.0681 256 4 226.541 4 190.202C4 160.339 38.4878 135.123 85.7412 127.084C85.6276 124.888 85.5684 122.675 85.5684 120.449C85.5684 53.9269 136.933 0 200.295 0Z" fill="url(#gradient)"/>
    <path d="M200.295 1C248.879 1 290.382 33.008 306.665 78.0984L307.605 77.7588L308.546 77.4191C292.004 31.6096 249.797 -0.999919 200.295 -1V1Z" fill="#FFF6EE" opacity="0.5"/>
  </g>
  <defs>
    <filter id="shadow" x="0" y="0" width="449" height="264" filterUnits="userSpaceOnUse" color-interpolation-filters="sRGB">
      <feFlood flood-opacity="0" result="BackgroundImageFix"/>
      <feColorMatrix in="SourceAlpha" type="matrix" values="0 0 0 0 0 0 0 0 0 0 0 0 0 0 0 0 0 0 127 0" result="hardAlpha"/>
      <feOffset dy="4"/>
      <feGaussianBlur stdDeviation="2"/>
      <feComposite in2="hardAlpha" operator="out"/>
      <feColorMatrix type="matrix" values="0 0 0 0 0 0 0 0 0 0 0 0 0 0 0 0 0 0 0.23 0"/>
      <feBlend mode="normal" in2="BackgroundImageFix" result="effect1_dropShadow"/>
      <feBlend mode="normal" in="SourceGraphic" in2="effect1_dropShadow" result="shape"/>
    </filter>
    <linearGradient id="gradient" x1="224.5" y1="0" x2="224.5" y2="256" gradientUnits="userSpaceOnUse">
      <stop stop-color="#FF8A5B"/>
      <stop offset="0.75" stop-color="#FFE2C7"/>
      <stop offset="1" stop-color="#FFFFFF"/>
    </linearGradient>
  </defs>
</svg>
