<svg width="772" height="322" viewBox="0 0 772 322" fill="none" xmlns="http://www.w3.org/2000/svg">
  <g opacity="0.5" filter="url(#filter0_d_0_1)">
    <path fill-rule="evenodd" clip-rule="evenodd" d="M481.5 0C569.589 0 641 42.7568 641 95.5C641 109.986 635.612 123.718 625.973 136.019C626.979 136.007 627.988 136 629 136C705.768 136 768 170.474 768 213C768 255.526 705.768 290 629 290C603.426 290 579.465 286.172 558.881 279.497C531.507 300.451 487.998 314 439 314C416.045 314 394.296 311.024 374.845 305.709C344.475 311 309.808 314 273 314C217.279 314 166.463 307.127 128.036 295.832C122.488 296.599 116.798 297 111 297C51.9055 297 4 255.586 4 204.5C4 153.414 51.9055 112 111 112C124.47 112 137.358 114.152 149.23 118.079C153.14 84.559 206.834 58 272.5 58C293.303 58 312.905 60.6652 330.103 65.373C351.174 27.3932 410.993 0 481.5 0Z" fill="url(#paint0_linear_0_1)"/>
  </g>
  <defs>
    <filter id="filter0_d_0_1" x="0" y="0" width="772" height="322" filterUnits="userSpaceOnUse" color-interpolation-filters="sRGB">
      <feFlood flood-opacity="0" result="BackgroundImageFix"/>
      <feColorMatrix in="SourceAlpha" type="matrix" values="0 0 0 0 0 0 0 0 0 0 0 0 0 0 0 0 0 0 127 0" result="hardAlpha"/>
      <feOffset dy="4"/>
      <feGaussianBlur stdDeviation="2"/>
      <feComposite in2="hardAlpha" operator="out"/>
      <feColorMatrix type="matrix" values="0 0 0 0 0 0 0 0 0 0 0 0 0 0 0 0 0 0 0.25 0"/>
      <feBlend mode="normal" in2="BackgroundImageFix" result="effect1_dropShadow_0_1"/>
      <feBlend mode="normal" in="SourceGraphic" in2="effect1_dropShadow_0_1" result="shape"/>
    </filter>
    <linearGradient id="paint0_linear_0_1" x1="386" y1="0" x2="386" y2="314" gradientUnits="userSpaceOnUse">
      <stop offset="0.514423" stop-color="#FF8A5B"/>
      <stop offset="0.854167" stop-color="#FFF6EE"/>
    </linearGradient>
  </defs>
</svg>
